<svg width="20" height="20" viewBox="0 0 20 20" fill="none" xmlns="http://www.w3.org/2000/svg">
<mask id="mask0_1_5201" style="mask-type:alpha" maskUnits="userSpaceOnUse" x="0" y="0" width="20" height="20">
<rect width="20" height="20" fill="#D9D9D9"/>
</mask>
<g mask="url(#mask0_1_5201)">
<path d="M14.5047 12C13.946 12 13.4722 11.8071 13.0833 11.4214C12.6944 11.0356 12.5 10.5634 12.5 10.0047C12.5 9.44601 12.6929 8.97222 13.0786 8.58333C13.4644 8.19444 13.9366 8 14.4953 8C15.054 8 15.5278 8.19288 15.9167 8.57865C16.3056 8.9644 16.5 9.43662 16.5 9.99531C16.5 10.554 16.3071 11.0278 15.9214 11.4167C15.5356 11.8056 15.0634 12 14.5047 12ZM11 16V14.8958C11 14.742 11.0278 14.5994 11.0833 14.468C11.1389 14.3365 11.2222 14.2222 11.3333 14.125C11.7778 13.75 12.2708 13.4688 12.8125 13.2812C13.3542 13.0938 13.9167 13 14.5 13C15.0833 13 15.6458 13.0938 16.1875 13.2812C16.7292 13.4688 17.2222 13.75 17.6667 14.125C17.7778 14.2222 17.8611 14.3365 17.9167 14.468C17.9722 14.5994 18 14.742 18 14.8958V16H11ZM8 10C7.16667 10 6.45833 9.70833 5.875 9.125C5.29167 8.54167 5 7.83333 5 7C5 6.16667 5.29167 5.45833 5.875 4.875C6.45833 4.29167 7.16667 4 8 4C8.83333 4 9.54167 4.29167 10.125 4.875C10.7083 5.45833 11 6.16667 11 7C11 7.83333 10.7083 8.54167 10.125 9.125C9.54167 9.70833 8.83333 10 8 10ZM2 16V14.0833C2 13.7253 2.08681 13.3962 2.26042 13.096C2.43403 12.7959 2.67361 12.5556 2.97917 12.375C3.74306 11.9306 4.55006 11.5903 5.40019 11.3542C6.25031 11.1181 7.11692 11 8 11C8.72222 11 9.43403 11.0799 10.1354 11.2396C10.8368 11.3993 11.5208 11.6319 12.1875 11.9375C11.8681 12.0347 11.5694 12.1667 11.2917 12.3333C11.0139 12.5 10.7431 12.6806 10.4792 12.875C10.0764 12.7639 9.66667 12.6736 9.25 12.6042C8.83333 12.5347 8.41667 12.5 8 12.5C7.24687 12.5 6.50999 12.5972 5.78933 12.7917C5.06867 12.9861 4.38194 13.2778 3.72917 13.6667C3.65972 13.7083 3.60417 13.7658 3.5625 13.8391C3.52083 13.9124 3.5 13.9938 3.5 14.0833V14.5H9.5V16H2ZM8.00442 8.5C8.41814 8.5 8.77083 8.35269 9.0625 8.05808C9.35417 7.76346 9.5 7.40929 9.5 6.99558C9.5 6.58186 9.35269 6.22917 9.05808 5.9375C8.76346 5.64583 8.40929 5.5 7.99558 5.5C7.58186 5.5 7.22917 5.64731 6.9375 5.94192C6.64583 6.23654 6.5 6.59071 6.5 7.00442C6.5 7.41814 6.64731 7.77083 6.94192 8.0625C7.23654 8.35417 7.59071 8.5 8.00442 8.5Z" fill="#1C1B1F"/>
</g>
</svg>
