<svg width="20" height="20" viewBox="0 0 20 20" fill="none" xmlns="http://www.w3.org/2000/svg">
<mask id="mask0_1_5171" style="mask-type:alpha" maskUnits="userSpaceOnUse" x="0" y="0" width="20" height="20">
<rect width="20" height="20" fill="#D9D9D9"/>
</mask>
<g mask="url(#mask0_1_5171)">
<path d="M12 18V16.5H15.5V9H4.5V13.5H3V5.5C3 5.09722 3.14687 4.74653 3.44062 4.44792C3.73438 4.14931 4.0875 4 4.5 4H6V2H7.5V4H12.5V2H14V4H15.5C15.9028 4 16.2535 4.14931 16.5521 4.44792C16.8507 4.74653 17 5.09722 17 5.5V16.5C17 16.9028 16.8507 17.2535 16.5521 17.5521C16.2535 17.8507 15.9028 18 15.5 18H12ZM7.5625 19L6.5 17.9375L7.66667 16.75H2V15.25H7.66667L6.5 14.0625L7.5625 13L10.5 16L7.5625 19ZM4.5 7.5H15.5V5.5H4.5V7.5Z" fill="#1C1B1F"/>
</g>
</svg>
