<svg width="20" height="20" viewBox="0 0 20 20" fill="none" xmlns="http://www.w3.org/2000/svg">
<mask id="mask0_3_1723" style="mask-type:alpha" maskUnits="userSpaceOnUse" x="0" y="0" width="20" height="20">
<rect width="20" height="20" fill="#2CABB1"/>
</mask>
<g mask="url(#mask0_3_1723)">
<path d="M3 8.5V3.5H4.5V6.20833C5.13889 5.375 5.93403 4.71528 6.88542 4.22917C7.83681 3.74306 8.875 3.5 10 3.5C11.9444 3.5 13.5972 4.18056 14.9583 5.54167C16.3194 6.90278 17 8.55556 17 10.5H15.5C15.5 8.98611 14.9618 7.69097 13.8854 6.61458C12.809 5.53819 11.5139 5 10 5C9.13889 5 8.34375 5.17708 7.61458 5.53125C6.88542 5.88542 6.27083 6.375 5.77083 7H8V8.5H3ZM3 10.5H4.5C4.5 11.9722 4.99653 13.2326 5.98958 14.2812C6.98264 15.3299 8.19444 15.9028 9.625 16L10.5 17.4792C10.4167 17.4792 10.3333 17.4826 10.25 17.4896C10.1667 17.4965 10.0833 17.5 10 17.5C8.05556 17.5 6.40278 16.8194 5.04167 15.4583C3.68056 14.0972 3 12.4444 3 10.5ZM11.5208 12.7708L9.25 10.5V6.5H10.75V9.875L12.2917 11.4375L11.5208 12.7708ZM15.3333 20L15.0625 18.8333C14.8681 18.7639 14.684 18.6806 14.5104 18.5833C14.3368 18.4861 14.1736 18.375 14.0208 18.25L12.875 18.6042L12.2083 17.4583L13.0625 16.625C13.0347 16.5 13.0139 16.3368 13 16.1354C12.9861 15.934 13.0069 15.6944 13.0625 15.4167L12.2083 14.6042L12.875 13.4375L14 13.7708C14.1528 13.6319 14.3194 13.5139 14.5 13.4167C14.6806 13.3194 14.8681 13.2361 15.0625 13.1667L15.3333 12H16.6667L16.9375 13.1667C17.1319 13.2361 17.3194 13.3194 17.5 13.4167C17.6806 13.5139 17.8472 13.6319 18 13.7708L19.125 13.4583L19.7917 14.6042L18.9583 15.3958C18.9722 15.4931 18.9931 15.6458 19.0208 15.8542C19.0486 16.0625 19.0278 16.3194 18.9583 16.625L19.8125 17.4375L19.1458 18.5833L18 18.25C17.8472 18.3889 17.6806 18.5035 17.5 18.5938C17.3194 18.684 17.1319 18.7639 16.9375 18.8333L16.6667 20H15.3333ZM16 17.5C16.4167 17.5 16.7708 17.3542 17.0625 17.0625C17.3542 16.7708 17.5 16.4167 17.5 16C17.5 15.5833 17.3542 15.2292 17.0625 14.9375C16.7708 14.6458 16.4167 14.5 16 14.5C15.5833 14.5 15.2292 14.6458 14.9375 14.9375C14.6458 15.2292 14.5 15.5833 14.5 16C14.5 16.4167 14.6458 16.7708 14.9375 17.0625C15.2292 17.3542 15.5833 17.5 16 17.5Z" fill="#2CABB1"/>
</g>
</svg>
