<svg width="96" height="14" viewBox="0 0 96 14" fill="none" xmlns="http://www.w3.org/2000/svg">
<g clip-path="url(#clip0_1_125)">
<path d="M43.6391 7.15777V7.12857C43.6391 3.47848 46.3519 0.5 50.2316 0.5C52.6236 0.5 54.0237 1.31762 55.2489 2.48565L53.7904 4.1501C52.7402 3.18647 51.6609 2.57326 50.1732 2.57326C47.7521 2.57326 45.9727 4.55891 45.9727 7.07017V7.09937C45.9727 9.61064 47.7521 11.6547 50.2024 11.6547C51.7776 11.6547 52.7694 11.0415 53.8779 10.0194L55.3364 11.4795C53.9946 12.8811 52.536 13.7571 50.1441 13.7571C46.4102 13.7571 43.6391 10.8371 43.6391 7.15777Z" fill="white"/>
<path d="M0 11.6547L1.34184 10.0487C2.567 11.0999 3.82133 11.7131 5.39654 11.7131C6.79672 11.7131 7.67183 11.0415 7.67183 10.1071V10.0779C7.67183 9.17263 7.14676 8.67622 4.78396 8.1214C2.0711 7.44979 0.525068 6.66136 0.525068 4.2961V4.2669C0.525068 2.07684 2.36281 0.558403 4.90064 0.558403C6.76755 0.558403 8.25524 1.11322 9.53874 2.16444L8.34275 3.85809C7.20511 3.01127 6.03829 2.54406 4.87147 2.54406C3.5588 2.54406 2.80036 3.21567 2.80036 4.06249V4.0917C2.80036 5.08452 3.38377 5.52253 5.86326 6.10655C8.57612 6.77816 9.94713 7.74179 9.94713 9.87345V9.90265C9.94713 12.2971 8.05105 13.728 5.36737 13.728C3.38377 13.6987 1.54603 13.0271 0 11.6547Z" fill="white"/>
<path d="M13.9434 0.704402H16.1896V6.01894H22.2862V0.704402H24.5323V13.5235H22.2862V8.1214H16.1896V13.5235H13.9434V0.704402Z" fill="white"/>
<path fill-rule="evenodd" clip-rule="evenodd" d="M35.8214 0.6168H33.7503L28.0912 13.5235H30.3957L31.7083 10.4283H37.7758L39.0885 13.5235H41.4513L35.8214 0.6168ZM34.7421 3.30328L36.959 8.44261H32.5543L34.7421 3.30328Z" fill="white"/>
<path d="M61.3455 0.704402H59.0993V13.5235H61.3455V9.81504L63.329 7.77098L67.7046 13.5235H70.4466L64.8751 6.22335L70.2133 0.704402H67.4129L61.3455 7.15777V0.704402Z" fill="white"/>
<path d="M73.743 0.704402H75.9891V11.4795H82.7275V13.5235H73.743V0.704402Z" fill="white"/>
<path d="M95.9125 0.704402H86.403V13.5235H96.0001V11.5087H88.6783V8.0922H95.0958V6.04814H88.6783V2.71926H95.9125V0.704402Z" fill="white"/>
</g>
<defs>
<clipPath id="clip0_1_125">
<rect width="96" height="13" fill="white" transform="translate(0 0.5)"/>
</clipPath>
</defs>
</svg>
